:SAMPLES-PER-SECOND 30
:FULLY-SPECIFIED
:DEGREES
420
root  13.8106 40.658 8.07656 12.0411 80.7226 13.6847
RightUpLeg  -4.77574 -10.0545 -8.84971
RightLeg  9.91349 1.46818 1.57005
RightFoot  -1.00702 -0.150091 1.58227
RightToes  0.000481921 0.542163 -0.142578
Spine  4.72682 -2.85041 -5.7972
Spine1  -0.422278 -4.19945 6.17084
HEad  21.4201 18.6635 -2.28748
LeftShoulder1  6.14767 -10.127 -38.8995
LeftArm  -22.6483 27.7629 -28.4719
LeftForeArm  178.312 -47.4936 -169.49
LeftHand  -0.25398 0.0180481 5.50724
RightShoulder  3.39748 5.36008 32.3762
RightArm  10.0782 -9.59276 43.2716
RightForeArm  157.576 60.576 161.275
RightHand  -0.876756 1.89343 -14.1352
LeftUpLeg  2.92433 6.6185 4.08718
LeftLeg  2.33009 25.8902 -3.91987
LeftFoot  -0.967734 0.307059 -3.31916
LeftToes  1.06247e-005 4.65869e-005 -8.65511e-006
421
root  13.7686 40.6408 8.02759 10.0624 79.657 11.6527
RightUpLeg  -5.24952 -9.7175 -8.60535
RightLeg  10.0472 2.28742 1.58259
RightFoot  -0.767138 -0.148227 1.54797
RightToes  0.000481921 0.542163 -0.142578
Spine  4.68411 -2.50682 -4.01477
Spine1  0.273455 -3.48666 4.17008
HEad  20.5284 18.3592 -2.78678
LeftShoulder1  6.3554 -10.5612 -38.9832
LeftArm  -24.2555 30.5776 -28.9073
LeftForeArm  178.695 -47.0001 -169.691
LeftHand  -0.25398 0.0180481 5.50724
RightShoulder  3.56198 5.68058 32.8345
RightArm  10.6192 -9.33269 43.8176
RightForeArm  156.702 61.0684 160.833
RightHand  -0.910643 2.00862 -14.454
LeftUpLeg  2.71511 7.01212 4.3375
LeftLeg  3.01049 26.5685 -3.93124
LeftFoot  -1.43765 0.305434 -3.42745
LeftToes  1.06247e-005 4.65869e-005 -8.65511e-006
422
root  13.7202 40.6286 7.96194 8.04004 78.0428 9.69006
RightUpLeg  -5.68048 -9.27505 -8.36044
RightLeg  10.0716 3.51487 1.63728
RightFoot  -0.42329 -0.147697 1.53019
RightToes  0.000481921 0.542163 -0.142578
Spine  4.97055 -2.26445 -2.94122
Spine1  0.814267 -3.09102 3.30602
HEad  19.4615 19.1712 -4.02851
LeftShoulder1  6.61957 -11.0447 -39.2845
LeftArm  -26.8586 33.6026 -28.9517
LeftForeArm  173.073 -46.2717 -169.574
LeftHand  -0.25398 0.0180481 5.50724
RightShoulder  3.68414 6.00732 32.788
RightArm  11.9562 -8.07858 44.2727
RightForeArm  156.811 61.7477 160.331
RightHand  -0.912656 2.033 -14.4377
LeftUpLeg  2.77541 7.36524 4.52172
LeftLeg  3.50231 27.8273 -3.94313
LeftFoot  -1.83974 0.310753 -3.59782
LeftToes  1.06247e-005 4.65869e-005 -8.65511e-006
423
root  13.6789 40.6208 7.87771 6.21161 75.8155 7.95941
RightUpLeg  -6.12452 -8.8268 -8.1256
RightLeg  9.96191 5.25566 1.79287
RightFoot  0.0269339 -0.144092 1.46134
RightToes  0.000481921 0.542163 -0.142578
Spine  5.4344 -2.16789 -2.35407
Spine1  1.09567 -3.00754 3.28239
HEad  18.1629 21.4212 -5.97066
LeftShoulder1  6.85064 -11.3478 -39.8811
LeftArm  -29.3042 35.2756 -27.8934
LeftForeArm  167.536 -44.8749 -169.693
LeftHand  -0.25398 0.0180481 5.50724
RightShoulder  3.76084 6.24905 32.6145
RightArm  13.7727 -6.01854 44.5969
RightForeArm  159.151 62.2735 160.148
RightHand  -0.815289 1.7888 -13.337
LeftUpLeg  3.03925 7.6255 4.58665
LeftLeg  3.79398 29.7807 -3.91223
LeftFoot  -2.11451 0.321427 -3.77403
LeftToes  1.06247e-005 4.65869e-005 -8.65511e-006
424
root  13.6388 40.6154 7.78813 4.97516 73.5133 6.8291
RightUpLeg  -6.5155 -8.48126 -7.95313
RightLeg  9.75123 7.11509 2.0073
RightFoot  0.494689 -0.139837 1.38063
RightToes  0.000481921 0.542163 -0.142578
Spine  5.75527 -2.30497 -2.03434
Spine1  1.41879 -3.24081 3.61548
HEad  17.0917 24.7359 -8.19558
LeftShoulder1  7.02855 -11.7015 -39.9785
LeftArm  -30.6615 33.892 -26.2738
LeftForeArm  165.599 -44.1236 -169.833
LeftHand  -0.25398 0.0180481 5.50724
RightShoulder  3.91314 6.60596 32.7599
RightArm  15.3395 -3.83344 44.7726
RightForeArm  161.639 62.5068 160.208
RightHand  -0.706852 1.59449 -11.918
LeftUpLeg  3.33682 7.77907 4.53096
LeftLeg  3.95048 31.9133 -3.85083
LeftFoot  -2.19907 0.326092 -3.82314
LeftToes  1.06247e-005 4.65869e-005 -8.65511e-006
